<svg width="12" height="12" viewBox="0 0 12 12" fill="none" xmlns="http://www.w3.org/2000/svg">
<path d="M3.54151 5.37502C4.08315 5.37157 4.52075 4.92828 4.5173 4.38663C4.51386 3.84499 4.07066 3.4073 3.52901 3.41074C2.98737 3.41419 2.54968 3.85748 2.55312 4.39913C2.55657 4.94078 2.99986 5.37846 3.54151 5.37502Z" fill="white"/>
<path d="M9.65786 1.89845L2.29206 1.94532C1.61545 1.94962 1.06796 2.50412 1.07226 3.18082L1.10663 8.58234C1.11093 9.25904 1.66543 9.80653 2.34204 9.80223L9.70785 9.75537C10.3845 9.75106 10.932 9.19656 10.9277 8.51986L10.8934 3.11834C10.8891 2.44164 10.3346 1.89415 9.65786 1.89845V1.89845ZM2.29831 2.92745L9.66411 2.88059C9.7997 2.87973 9.91037 2.98899 9.91123 3.12459L9.93341 6.61057L8.37069 4.81037C8.20491 4.61846 7.96607 4.51684 7.71023 4.51263C7.45587 4.51568 7.21796 4.63014 7.05618 4.82665L5.24628 7.02731L4.64836 6.43837C4.31039 6.10468 3.7638 6.10816 3.43055 6.44612L2.08389 7.80957L2.0544 3.17457C2.05354 3.03898 2.1628 2.92831 2.29831 2.92745V2.92745Z" fill="white"/>
</svg>
